<?xml version="1.0" standalone="no"?>
<!DOCTYPE svg PUBLIC "-//W3C//DTD SVG 20010904//EN"
 "http://www.w3.org/TR/2001/REC-SVG-20010904/DTD/svg10.dtd">
<svg version="1.0" xmlns="http://www.w3.org/2000/svg"
 width="300.000000pt" height="402.000000pt" viewBox="0 0 300.000000 402.000000"
 preserveAspectRatio="xMidYMid meet">
<metadata>
Created by potrace 1.10, written by Peter Selinger 2001-2011
</metadata>
<g transform="translate(0.000000,402.000000) scale(0.100000,-0.100000)"
fill="#000000" stroke="none">
<path d="M1440 3709 c-145 -40 -190 -61 -189 -89 0 -10 2 -11 6 -3 13 34 262
109 277 84 6 -9 -47 -36 -93 -46 -25 -5 -30 -10 -20 -16 12 -7 11 -9 -1 -10
-8 -1 -18 -1 -22 0 -4 0 -28 -24 -54 -54 -26 -31 -49 -53 -52 -50 -3 2 1 13 9
22 19 25 -2 5 -46 -44 -44 -50 -26 -59 25 -13 18 17 37 30 42 30 5 0 37 26 72
59 35 32 74 62 87 66 13 4 35 16 48 26 31 25 97 25 182 0 80 -23 129 -45 158
-72 11 -11 43 -31 70 -44 27 -14 51 -32 54 -40 7 -16 -7 -12 -91 27 -34 16
-53 18 -95 13 -29 -4 -60 -12 -70 -17 -17 -8 -16 -11 5 -38 32 -40 51 -37 83
12 35 52 46 34 12 -19 -22 -34 -31 -40 -88 -52 -80 -17 -136 -45 -144 -71 -7
-23 -21 -26 -28 -6 -3 8 1 20 9 26 8 7 14 18 14 24 0 12 77 76 92 76 21 0 5
-29 -22 -39 -16 -5 -30 -12 -30 -14 0 -5 101 21 107 27 7 7 -40 46 -54 46 -8
0 -28 -7 -44 -16 -17 -8 -33 -13 -36 -10 -10 10 8 25 45 37 20 6 48 20 61 30
13 11 29 19 36 19 24 0 67 28 55 35 -17 11 -83 -4 -105 -25 -25 -22 -77 -40
-57 -19 6 7 12 20 12 28 0 12 -3 11 -18 -2 -10 -10 -19 -23 -19 -30 0 -15 -78
-176 -96 -199 -10 -13 -21 -15 -57 -8 -47 9 -90 -2 -90 -22 0 -8 -3 -9 -10 -2
-7 7 -7 19 -1 36 10 27 26 29 74 9 16 -6 38 -11 50 -11 15 1 11 5 -16 14 -42
15 -63 30 -91 64 -12 16 -26 22 -39 18 -10 -2 -27 0 -36 6 -24 15 -128 -38
-174 -88 -29 -32 -33 -42 -26 -62 5 -13 9 -36 9 -51 0 -15 6 -35 13 -45 12
-16 13 -14 9 17 -2 19 1 44 7 55 8 15 8 21 -1 24 -10 4 85 31 152 45 42 8 2
-15 -55 -32 -38 -11 -51 -20 -52 -35 -1 -11 3 -20 8 -20 6 0 6 -8 -1 -20 -7
-14 -8 -26 -1 -38 9 -14 10 -13 11 11 0 28 17 66 35 79 6 4 22 8 37 8 14 0 28
5 30 12 3 8 17 0 39 -20 19 -17 38 -32 43 -32 4 0 6 -9 3 -20 -6 -24 8 -27 17
-4 4 10 -1 25 -11 37 -17 19 -17 19 3 13 16 -5 23 0 32 20 8 17 18 24 30 20
50 -14 81 -16 87 -7 14 24 22 9 15 -28 -8 -45 4 -76 20 -51 5 8 10 21 10 28 0
7 4 10 10 7 7 -4 7 3 0 20 -13 34 -13 35 3 35 19 0 49 -34 45 -51 -2 -7 4 -14
14 -16 32 -8 88 76 88 132 0 25 10 32 24 18 4 -5 12 -9 17 -9 5 -1 14 -2 19
-3 16 -2 12 -18 -7 -25 -9 -4 -19 -2 -23 4 -4 6 -15 -15 -26 -46 -10 -31 -27
-62 -36 -68 -10 -6 -18 -15 -18 -19 0 -12 27 -1 67 26 33 22 44 47 21 47 -7 0
-5 5 5 11 23 13 37 3 37 -26 0 -20 4 -23 34 -20 18 2 43 9 54 16 28 18 39 5
16 -18 -17 -17 -17 -18 11 -21 16 -2 38 -10 49 -18 11 -8 25 -14 31 -14 5 0 3
5 -5 10 -13 9 -13 11 0 20 9 6 10 10 3 10 -7 0 -21 9 -32 21 -21 23 -101 39
-101 20 0 -6 -5 -11 -11 -11 -6 0 -9 6 -6 14 3 8 -3 22 -14 32 -10 9 -19 24
-19 32 0 12 7 9 28 -10 17 -16 44 -28 74 -32 48 -7 61 -17 137 -102 24 -27 40
-42 36 -34 -5 8 -5 12 -1 8 4 -3 28 -51 52 -105 33 -72 49 -123 59 -193 21
-137 22 -133 -34 -163 -27 -15 -56 -27 -65 -27 -9 0 -48 -32 -87 -72 -70 -71
-70 -72 -65 -117 3 -25 12 -66 19 -91 8 -25 15 -79 16 -120 1 -41 7 -79 13
-85 15 -15 0 177 -18 220 -16 39 -19 74 -5 60 5 -6 11 -19 13 -29 3 -21 75
-45 136 -46 18 0 32 -5 32 -12 4 -97 0 -230 -8 -245 -5 -10 -15 -45 -22 -78
-13 -62 -35 -115 -48 -115 -5 0 -18 -19 -31 -42 -109 -205 -132 -228 -229
-228 -32 0 -54 -5 -62 -15 -7 -9 -21 -13 -30 -10 -9 3 -23 -1 -30 -10 -19 -23
-28 -19 -61 35 -17 27 -33 50 -36 50 -10 0 11 -46 26 -57 22 -16 7 -27 -18
-13 -15 8 -21 20 -21 47 0 30 -2 34 -15 23 -8 -7 -15 -21 -15 -31 0 -11 -4
-19 -10 -19 -14 0 -13 12 6 49 25 50 45 56 199 57 77 0 148 1 158 2 29 3 109
84 129 130 11 24 25 45 33 48 15 6 52 131 42 141 -4 3 -7 -1 -7 -9 0 -9 -9
-18 -21 -21 -15 -4 -19 -11 -15 -25 12 -36 -3 -54 -39 -48 -19 4 -46 0 -68 -9
-21 -9 -48 -12 -67 -9 -17 4 -79 -3 -144 -17 -106 -21 -116 -22 -153 -7 -34
13 -45 13 -72 2 -40 -17 -31 0 12 23 19 9 59 17 97 18 52 1 80 9 132 34 75 37
99 37 108 1 6 -26 29 -36 56 -26 13 5 9 13 -17 41 -38 40 -71 45 -121 19 -35
-18 -191 -46 -212 -38 -8 3 -29 -8 -48 -25 -20 -17 -38 -28 -41 -25 -3 3 -12
-17 -21 -45 -8 -29 -24 -65 -36 -80 -11 -16 -20 -35 -20 -43 0 -10 3 -9 10 2
9 13 10 13 10 0 1 -9 6 -5 16 10 14 24 14 24 8 -15 -9 -55 -15 -62 -30 -34 -7
13 -14 20 -14 14 0 -5 -4 -4 -9 4 -5 8 -7 38 -4 68 4 38 2 53 -6 53 -8 0 -12
-14 -11 -37 1 -21 2 -42 1 -47 -2 -21 -55 43 -78 93 -13 29 -26 51 -29 49 -2
-3 5 -27 17 -54 34 -80 39 -94 30 -94 -4 0 -20 29 -36 65 -15 36 -31 65 -35
65 -5 0 -31 22 -58 49 -48 48 -90 133 -79 164 2 6 12 -12 21 -40 17 -52 34
-75 21 -30 -5 17 -4 19 4 7 6 -8 11 -25 11 -36 0 -12 6 -27 14 -33 29 -24 -2
62 -45 123 -27 40 -44 78 -50 111 -12 78 -25 127 -43 169 -11 25 -16 59 -15
95 5 86 0 153 -10 147 -5 -3 -7 -45 -5 -93 3 -76 1 -69 -10 42 -10 89 -21 145
-36 179 -15 34 -22 71 -24 127 -2 59 -7 83 -20 98 -17 18 -17 23 -2 74 15 51
18 78 15 117 -1 8 6 32 15 53 9 20 13 37 9 37 -5 0 -18 -24 -31 -53 -21 -49
-30 -112 -48 -330 l-7 -77 -23 15 c-36 24 -60 18 -93 -22 -28 -34 -31 -44 -31
-109 0 -39 7 -93 15 -120 8 -27 15 -58 15 -70 0 -11 12 -44 26 -72 14 -29 24
-59 21 -66 -5 -12 -44 -13 -219 -11 -117 2 -256 7 -308 11 l-95 6 -113 -57
c-79 -41 -112 -63 -112 -76 0 -14 20 -6 110 43 61 32 125 62 143 64 18 3 77
-1 132 -8 73 -9 159 -11 315 -6 294 10 302 10 320 -7 9 -8 25 -15 36 -14 17 0
17 1 -2 9 -33 13 -40 31 -18 48 18 14 18 14 -6 9 -77 -17 -121 -19 -137 -6
-19 16 -83 147 -83 169 1 8 9 0 18 -19 13 -26 24 -35 47 -37 26 -2 28 -1 11 9
-59 38 -61 41 -61 124 1 148 18 162 103 84 28 -27 52 -45 52 -39 0 24 -65 89
-108 108 -45 20 -47 20 -60 3 -10 -13 -13 -41 -9 -108 5 -89 4 -89 -8 -40 -20
77 -18 128 6 159 27 34 57 33 125 -6 75 -42 91 -78 102 -230 7 -98 12 -122 35
-161 29 -50 34 -88 14 -105 -14 -12 -134 -44 -257 -68 -41 -8 -106 -24 -145
-35 -38 -10 -79 -19 -90 -19 -11 0 -58 17 -105 36 -209 89 -232 96 -275 89
-23 -3 -51 -12 -61 -20 -17 -13 -15 -13 16 -5 60 17 108 11 168 -19 31 -16
102 -45 157 -66 l100 -37 105 25 c58 14 127 29 153 32 27 4 65 12 85 19 21 7
53 16 74 20 l36 7 -8 -34 c-5 -23 -3 -46 6 -67 8 -18 14 -42 14 -54 0 -12 9
-37 20 -56 41 -72 89 -173 85 -180 -3 -5 11 -22 30 -39 20 -17 30 -31 23 -31
-7 0 -42 28 -77 63 -70 67 -65 51 8 -25 44 -46 43 -60 -2 -37 -12 6 -17 7 -12
1 6 -5 55 -29 110 -53 55 -24 102 -46 105 -50 3 -3 12 -9 20 -12 8 -3 -14 -5
-50 -5 -54 1 -59 2 -25 7 39 6 38 7 -33 19 -136 23 -174 59 -192 180 -5 32
-15 75 -23 97 -8 22 -22 86 -32 143 -10 56 -21 102 -24 102 -3 0 -21 -28 -39
-63 -40 -77 -71 -119 -72 -96 0 22 -63 51 -93 44 -14 -4 -45 3 -78 18 -36 16
-61 21 -74 16 -20 -8 -20 -8 0 -9 11 -1 42 -13 69 -28 38 -21 60 -44 97 -102
85 -132 109 -193 109 -273 0 -61 -2 -68 -15 -57 -8 7 -15 18 -15 25 0 8 -32
62 -72 121 -80 119 -139 170 -225 198 -28 9 -57 16 -63 16 -6 0 -41 12 -76 26
-36 14 -68 24 -71 21 -8 -9 72 -46 133 -62 31 -8 59 -16 61 -18 2 -3 -8 -37
-23 -76 -25 -69 -28 -72 -53 -66 -14 4 -29 9 -33 13 -3 4 4 34 17 67 13 33 24
53 24 45 1 -16 41 -47 41 -32 0 12 -49 57 -55 51 -10 -11 -54 -137 -49 -142 3
-3 -22 3 -56 14 -34 10 -78 19 -98 18 -34 -1 -31 -3 28 -20 104 -31 238 -80
256 -93 15 -11 15 -16 -5 -54 -12 -23 -27 -41 -33 -39 -7 1 -13 -10 -13 -25
-1 -16 2 -28 5 -28 3 0 22 27 44 60 37 58 56 74 56 47 0 -17 46 -60 86 -80 39
-20 84 -72 84 -98 0 -11 -7 -36 -15 -56 -15 -35 -16 -35 -57 -29 -41 7 -121
46 -218 107 -25 16 -75 35 -110 44 -36 9 -82 23 -103 32 -28 12 -43 14 -55 6
-40 -24 -122 -37 -172 -27 -28 6 -50 7 -50 2 0 -4 7 -8 15 -8 19 0 19 -9 0
-34 -10 -13 -15 -41 -14 -80 l1 -61 10 45 c18 87 29 120 39 120 7 0 8 -7 4
-17 -6 -17 -32 -136 -41 -193 -4 -20 -1 -18 12 10 10 19 28 56 41 82 12 26 23
53 22 60 0 7 -5 2 -10 -11 -12 -30 -24 -20 -15 13 4 15 13 24 24 24 9 0 29 3
45 7 33 9 35 -4 7 -50 -11 -17 -26 -60 -34 -96 -16 -66 -54 -116 -81 -105 -11
4 -25 -13 -25 -31 0 -2 15 -2 32 2 l33 7 -34 -29 c-19 -16 -32 -35 -30 -42 7
-21 119 103 119 132 0 49 92 256 113 257 5 0 5 -6 1 -12 -4 -7 2 -4 14 6 13
11 22 14 22 7 0 -19 -67 -146 -85 -161 -20 -17 -40 -56 -49 -95 -6 -29 -4 -28
39 20 25 27 45 44 45 38 0 -7 -18 -45 -40 -85 -36 -67 -44 -75 -97 -100 -57
-27 -57 -27 -18 -22 22 4 51 13 65 21 14 8 -6 -16 -45 -54 l-70 -70 -6 51 c-3
28 -6 -16 -5 -99 0 -88 2 -113 4 -60 l3 90 108 95 109 95 1 105 c1 78 7 115
21 147 10 24 21 43 23 43 2 0 0 -24 -5 -53 -4 -28 -13 -94 -18 -145 -10 -90
-9 -94 14 -125 13 -18 33 -50 44 -73 24 -47 59 -79 160 -149 82 -55 77 -33 42
-195 -10 -47 -23 -108 -29 -137 -10 -48 -19 -60 -158 -200 -81 -81 -161 -167
-177 -189 -17 -25 -52 -55 -87 -75 -60 -35 -79 -56 -33 -39 49 19 115 72 140
113 30 48 253 277 270 277 6 0 16 10 23 22 6 13 9 15 7 6 -3 -9 -8 -33 -12
-53 -5 -27 -9 -33 -16 -23 -6 9 -7 6 -3 -9 4 -13 2 -23 -4 -23 -14 0 -52 -107
-44 -126 4 -12 3 -15 -5 -10 -7 4 -12 1 -12 -7 0 -28 -33 -79 -64 -98 -17 -10
-24 -19 -16 -19 9 0 25 7 38 15 19 14 21 14 16 1 -3 -8 -20 -18 -37 -21 -82
-16 -108 -46 -121 -140 -7 -54 -52 -114 -105 -142 -48 -25 -81 -51 -81 -64 0
-5 16 3 36 16 20 14 42 25 48 25 29 0 126 136 126 177 0 7 27 26 60 42 48 23
60 26 60 14 0 -8 -30 -73 -66 -144 l-66 -128 -57 -4 -56 -3 60 -2 c68 -2 55
-15 140 144 41 77 72 161 62 171 -3 2 -33 -7 -68 -21 -34 -14 -64 -24 -66 -22
-3 2 1 13 9 25 17 27 99 56 109 39 5 -8 12 -2 19 17 6 17 18 38 27 47 9 10 16
26 17 35 1 10 18 68 38 128 36 109 42 138 94 395 33 166 51 216 119 330 29 49
63 118 76 152 12 35 31 77 41 93 10 17 22 40 27 52 9 18 16 21 53 16 52 -7 52
-7 39 -30 -5 -10 -12 -34 -16 -53 -8 -51 -68 -171 -100 -200 -15 -14 -36 -37
-47 -52 -24 -35 -100 -284 -133 -438 -26 -123 -51 -201 -40 -125 6 36 5 38 -8
20 -19 -28 -28 -80 -15 -93 14 -14 -19 -69 -80 -135 -24 -27 -41 -51 -37 -55
12 -11 94 89 126 153 17 35 41 116 58 195 29 134 102 396 122 436 6 11 29 41
51 65 22 24 57 80 79 124 39 82 89 238 89 281 0 29 11 30 35 4 10 -11 15 -20
11 -20 -4 0 8 -19 28 -41 25 -30 33 -46 27 -58 -5 -9 -11 -38 -15 -66 -8 -65
-40 -129 -71 -143 -18 -9 -47 -58 -115 -198 -49 -102 -90 -188 -90 -191 0 -3
-22 -55 -49 -117 -27 -61 -55 -133 -62 -161 -6 -27 -22 -68 -35 -90 -28 -48
-80 -195 -89 -250 -12 -72 -27 -108 -96 -230 l-69 -120 -62 -6 c-48 -4 -34 -6
63 -7 l126 -2 18 40 c20 45 31 44 41 -5 3 -19 11 -35 16 -35 6 0 7 7 4 16 -3
9 -6 22 -6 29 0 8 -7 20 -15 29 -14 14 -12 23 23 93 22 43 48 103 57 135 18
55 19 56 62 63 27 4 47 13 53 25 14 26 12 37 -2 18 -7 -9 -30 -21 -52 -27
l-38 -10 6 41 c11 66 31 95 73 104 47 10 73 12 73 7 0 -18 -105 -310 -114
-315 -6 -4 -30 -10 -54 -14 -23 -3 -42 -10 -42 -14 0 -10 78 -1 101 11 10 5
37 71 68 166 29 87 66 191 82 231 36 88 33 108 -4 23 -25 -57 -27 -59 -77 -71
-28 -7 -53 -10 -56 -8 -2 3 9 35 26 71 16 37 30 73 30 81 0 8 7 22 16 30 8 9
12 21 8 27 -4 7 -3 10 2 7 5 -3 22 15 37 41 l28 46 -45 -47 c-24 -26 -47 -62
-51 -79 -7 -32 -55 -146 -76 -183 -18 -31 -39 -96 -54 -171 -9 -40 -38 -118
-71 -183 -30 -63 -59 -125 -64 -138 -8 -21 -16 -24 -61 -24 -28 0 -49 3 -47 8
16 34 73 140 98 178 36 58 40 47 5 -15 -28 -49 -28 -62 0 -31 10 11 15 20 12
20 -3 0 9 33 27 73 19 39 41 106 51 147 35 155 100 296 140 306 25 6 35 24 14
24 -7 0 -8 11 -4 29 5 25 3 30 -13 28 -14 -1 -24 -13 -32 -40 -6 -21 -13 -37
-16 -35 -6 6 26 101 38 113 7 7 8 1 4 -15 -9 -34 78 122 105 188 12 29 24 51
26 48 6 -6 112 31 128 44 7 6 15 35 19 65 6 55 63 195 93 227 9 10 24 18 34
18 10 0 21 5 25 11 7 12 14 162 7 156 -4 -5 -24 -96 -26 -124 -1 -12 -6 -25
-10 -29 -4 -5 -5 0 -1 11 7 20 7 20 -15 0 -13 -11 -43 -61 -68 -112 -36 -74
-50 -93 -74 -102 -32 -11 -41 -26 -9 -16 15 5 18 3 14 -9 -4 -9 -1 -23 6 -31
21 -25 2 -54 -43 -67 -23 -6 -50 -18 -59 -26 -16 -14 -17 -11 -14 35 4 56 88
246 121 273 10 8 16 11 14 5 -30 -65 -83 -166 -90 -171 -5 -3 -9 -10 -9 -16 0
-24 34 20 70 91 21 42 48 82 60 89 28 17 65 103 74 170 7 52 6 54 -36 105 -24
28 -37 48 -30 43 17 -10 15 4 -7 41 -13 20 -16 33 -9 35 8 3 7 11 -2 27 -9 19
-14 21 -21 10 -6 -10 -8 -7 -6 9 2 29 8 28 39 -5 48 -53 87 -114 81 -131 -4
-13 -3 -14 5 -3 8 11 12 10 21 -5 6 -11 11 -14 11 -7 0 21 -84 135 -127 170
l-42 35 -7 -51 c-4 -28 -11 -54 -17 -58 -13 -8 -1 88 16 119 25 46 42 68 53
68 6 0 27 -16 47 -35 26 -26 42 -53 56 -103 11 -37 27 -91 35 -121 26 -89 22
-285 -9 -396 -51 -191 -142 -460 -242 -725 -22 -58 -57 -154 -78 -213 -27 -77
-41 -105 -47 -95 -7 9 -8 7 -4 -7 5 -16 1 -21 -15 -22 -26 -2 -39 -14 -21 -20
6 -3 10 -10 6 -16 -3 -7 2 -3 11 8 17 20 17 20 10 -5 -5 -14 -25 -60 -45 -103
-20 -42 -32 -77 -26 -77 6 0 24 30 39 68 214 506 467 1249 467 1373 0 33 2 36
30 37 34 1 120 45 147 75 12 13 -9 6 -65 -23 -45 -23 -90 -40 -98 -38 -11 2
-16 19 -19 63 -2 33 -14 96 -25 140 -12 44 -23 90 -25 103 l-3 22 25 -20 c16
-12 42 -20 67 -21 34 -1 37 -2 16 -8 l-25 -7 25 -7 c14 -4 46 -7 71 -7 53 0
130 -13 173 -30 29 -11 29 -11 8 -25 -11 -8 -57 -29 -101 -46 -44 -16 -85 -38
-93 -47 -12 -15 -11 -16 12 -1 14 8 45 21 70 29 25 7 71 26 102 42 70 34 100
36 113 6 9 -20 18 -23 60 -23 28 1 77 4 110 8 l60 7 -44 -15 c-26 -9 -98 -16
-170 -19 -133 -4 -208 -19 -297 -60 -62 -28 -118 -66 -110 -73 3 -3 17 3 33
14 40 28 127 61 202 78 36 8 76 17 89 20 12 3 22 1 22 -5 0 -9 -46 -93 -120
-220 -14 -25 -37 -74 -50 -110 -12 -36 -51 -130 -86 -210 -35 -80 -83 -215
-108 -300 -62 -213 -63 -217 -113 -380 -39 -126 -88 -256 -133 -352 -13 -27
-17 -28 -82 -28 l-68 0 30 53 c31 55 105 265 160 452 18 61 42 137 55 170 12
33 39 113 59 178 40 125 48 133 94 101 12 -8 28 -14 35 -11 6 2 -8 14 -33 27
-25 12 -46 23 -48 25 -4 3 83 214 117 282 17 34 31 66 31 70 0 4 23 48 50 97
28 49 48 91 46 93 -13 14 -163 -292 -234 -477 -43 -113 -160 -465 -197 -595
-43 -149 -113 -342 -146 -403 -30 -54 -38 -61 -69 -65 -19 -2 112 -4 293 -5
272 -2 327 0 327 12 0 7 34 62 76 120 42 59 74 109 72 111 -2 3 -20 -16 -39
-41 -19 -25 -62 -68 -96 -95 -34 -27 -70 -60 -79 -74 -10 -15 -26 -25 -40 -25
l-24 0 20 40 c11 22 34 61 50 86 32 52 52 111 81 249 11 49 39 153 63 230 25
77 52 176 61 220 15 71 35 151 81 322 11 39 29 68 77 120 66 72 176 263 196
339 13 48 27 56 80 48 33 -5 40 -2 67 28 17 19 50 74 74 124 24 49 51 100 61
114 9 14 20 44 24 68 4 23 11 42 15 42 5 0 11 14 15 30 11 51 51 90 93 91 21
0 55 6 77 14 39 12 38 13 -30 8 -38 -3 -81 -12 -93 -20 -32 -20 -35 -14 -14
28 15 31 21 34 57 33 54 -2 125 -15 125 -23 0 -4 19 -12 43 -19 23 -7 53 -22
67 -32 l25 -20 -45 6 c-52 7 -78 -12 -89 -67 -5 -27 -14 -35 -49 -47 -34 -11
-53 -28 -102 -93 -42 -56 -60 -89 -60 -110 0 -25 -10 -35 -70 -75 -39 -26 -73
-44 -76 -41 -6 6 27 41 79 84 28 23 31 43 17 98 -7 26 -8 23 -9 -22 -1 -48 -4
-54 -45 -88 -24 -20 -47 -47 -50 -60 -3 -13 -23 -50 -45 -82 -21 -32 -54 -83
-73 -113 -19 -30 -60 -86 -91 -125 -51 -63 -60 -84 -106 -226 -28 -86 -56
-192 -62 -235 -13 -101 -71 -350 -111 -479 -25 -83 -31 -121 -34 -220 -2 -66
-6 -143 -9 -172 l-6 -52 -72 -4 c-51 -2 -41 -3 33 -4 58 0 94 2 80 4 l-25 4 7
117 c8 128 13 176 22 207 4 11 0 7 -8 -10 -26 -52 -17 -10 24 116 22 68 40
132 40 143 0 18 2 18 10 6 8 -11 9 -8 4 12 -3 15 5 68 19 126 14 54 31 137 37
183 14 101 81 324 118 395 15 29 61 97 102 152 41 56 90 126 108 156 30 51 96
115 107 104 6 -6 -130 -217 -164 -253 -31 -34 -101 -132 -101 -141 0 -4 -16
-26 -35 -50 -28 -34 -65 -108 -65 -130 0 -13 30 11 31 25 0 12 2 11 8 -4 7
-18 10 -15 25 19 9 21 16 44 16 52 0 7 4 15 8 18 15 9 -34 -240 -51 -265 -11
-15 -17 -18 -17 -9 -1 21 -23 -19 -25 -45 -1 -11 -6 -20 -11 -20 -17 0 -34
-16 -34 -32 0 -12 3 -13 14 -4 11 9 10 -2 -5 -49 -14 -46 -19 -92 -19 -180 0
-107 -8 -198 -41 -433 -11 -83 -3 -217 13 -217 7 0 8 27 4 72 -5 49 -2 101 8
158 18 97 26 202 31 410 3 160 10 188 74 305 32 57 43 93 59 187 11 63 30 136
42 161 45 89 246 400 269 416 l24 16 -6 -49 c-4 -27 -7 -74 -7 -104 0 -54 -1
-56 -55 -108 -30 -30 -55 -59 -55 -66 0 -7 25 12 55 42 62 61 75 94 75 186 0
62 29 164 54 193 20 23 50 84 37 77 -18 -12 -13 1 21 49 19 27 43 48 58 51 53
12 81 28 116 66 19 22 33 43 29 46 -3 4 -22 -11 -40 -33 -19 -22 -34 -37 -35
-33 -1 19 33 88 44 87 30 -1 166 -35 162 -40 -3 -3 6 -12 22 -20 83 -42 216
-149 248 -201 16 -25 32 -38 47 -39 21 0 21 -1 -3 -11 -144 -62 -162 -74 -216
-129 -30 -33 -57 -59 -59 -59 -3 0 13 25 35 57 22 31 40 61 40 66 0 6 7 19 17
29 10 11 12 18 4 18 -6 0 -21 -16 -33 -36 -17 -30 -23 -34 -32 -22 -16 21 -58
48 -76 48 -8 0 -1 -8 15 -18 43 -27 58 -48 51 -74 -8 -29 -34 -63 -42 -55 -4
3 1 13 10 22 22 22 21 38 -1 26 -50 -27 -163 -178 -146 -194 3 -4 19 15 34 42
33 56 83 103 104 94 13 -4 12 -9 -5 -32 -41 -52 -97 -137 -114 -170 -13 -24
-15 -36 -7 -44 8 -8 11 -6 11 6 0 19 29 81 35 75 9 -9 -49 -176 -89 -254 -41
-80 -154 -253 -192 -296 -9 -9 -31 -69 -50 -133 -19 -65 -44 -135 -55 -156
-21 -43 -23 -49 -11 -49 9 0 48 96 77 190 18 57 68 156 115 225 14 22 39 62
54 88 15 27 30 46 33 43 3 -3 -4 -20 -14 -38 -11 -18 -30 -51 -43 -72 -13 -22
-19 -36 -12 -33 20 13 83 125 86 155 3 16 19 58 36 93 41 80 67 154 76 216 14
97 155 254 288 320 68 33 79 36 106 26 23 -8 30 -8 31 0 0 7 4 3 9 -8 8 -19 9
-19 9 2 1 14 -11 30 -31 44 -18 12 -62 52 -98 88 -69 71 -245 193 -294 205
-17 4 -42 16 -56 26 -58 41 -211 100 -262 100 -37 0 -43 14 -43 102 0 67 -3
80 -25 104 -19 21 -21 26 -7 21 11 -4 16 -3 12 3 -3 6 -18 10 -33 10 l-27 1
30 13 c35 15 62 61 43 72 -7 4 -14 1 -17 -7 -7 -23 -58 -69 -76 -69 -31 0 -82
28 -88 49 -7 27 -3 26 27 -4 45 -45 96 -28 96 32 0 37 8 40 52 17 21 -11 34
-12 41 -5 7 7 -1 15 -24 25 -31 15 -31 16 -7 13 20 -3 29 2 39 22 22 43 21 47
0 22 -15 -17 -37 -25 -78 -31 -69 -10 -132 -32 -144 -51 -5 -8 -9 -9 -9 -4 1
33 60 68 145 86 90 19 98 25 92 66 -5 28 -3 32 7 24 10 -9 13 -6 10 11 -2 13
-11 75 -20 138 -11 81 -24 133 -44 176 -16 34 -36 90 -45 124 -48 185 -131
309 -262 394 -81 52 -161 81 -274 101 -94 17 -138 18 -189 4z m360 -193 c0 -8
-4 -17 -8 -20 -13 -8 -35 11 -28 23 10 16 36 14 36 -3z m115 -6 c-2 -4 6 -5
18 -3 41 7 117 -63 160 -146 20 -40 37 -83 37 -94 0 -20 -1 -20 -20 -2 -12 10
-30 33 -40 51 -11 17 -30 34 -43 37 -39 9 -172 58 -184 69 -7 6 -13 17 -13 25
0 12 9 9 43 -9 23 -14 50 -28 60 -31 16 -6 16 -4 3 21 -21 41 -42 55 -71 48
-30 -8 -31 -2 -7 22 16 16 67 28 57 12z m-605 -70 c0 -12 -42 -23 -67 -18 -13
4 -8 8 17 15 46 15 50 15 50 3z m66 -12 c5 -7 0 -9 -14 -6 -20 6 -21 3 -15
-38 4 -30 2 -44 -6 -44 -6 0 -11 14 -11 30 0 26 -3 29 -17 21 -32 -16 -173
-55 -179 -48 -8 8 65 44 107 52 20 4 49 15 65 26 33 21 59 24 70 7z m354 -53
c17 -20 5 -32 -15 -15 -13 11 -18 10 -31 -9 -17 -24 -36 -19 -27 7 13 34 51
43 73 17z m-758 -395 c-3 -18 -11 -45 -18 -59 l-13 -24 -7 27 c-3 15 -1 32 5
40 6 7 8 27 5 44 -4 17 -3 39 1 49 11 29 33 -35 27 -77z m163 -737 c12 -53 -2
-38 -19 20 -9 30 -12 63 -8 77 6 21 7 19 13 -20 4 -25 10 -60 14 -77z m-59 26
c-12 -29 -14 -31 -15 -11 -1 27 21 72 26 56 2 -7 -3 -27 -11 -45z m-96 -13 c0
-2 -16 -30 -35 -61 -19 -32 -45 -84 -57 -117 -13 -32 -27 -58 -32 -58 -9 0 -6
11 16 70 25 68 108 195 108 166z m130 -33 c0 -9 13 -39 28 -67 16 -28 32 -64
36 -79 4 -15 10 -26 15 -23 4 3 27 -27 51 -67 52 -89 146 -180 223 -214 31
-14 57 -30 57 -34 0 -13 -3 -12 -62 14 -29 13 -68 37 -87 52 -18 16 -47 36
-65 44 -23 12 -41 37 -73 101 -27 56 -42 77 -42 62 -1 -13 4 -33 10 -45 10
-21 10 -21 -5 -3 -9 11 -16 25 -16 32 0 19 -43 107 -67 138 -24 30 -39 88 -28
106 9 14 25 3 25 -17z m-131 -109 c-4 -27 -8 -54 -8 -60 -1 -6 -12 -24 -26
-40 -28 -33 -31 -44 -12 -44 21 0 46 33 53 68 4 18 11 35 17 39 7 4 8 -5 4
-27 -4 -18 -7 -41 -7 -51 0 -10 -21 -40 -46 -66 -25 -27 -45 -41 -43 -33 1 8
0 22 -4 30 -9 25 -16 100 -8 95 13 -8 53 75 48 97 -3 12 1 37 10 57 l15 36 8
-26 c4 -14 4 -48 -1 -75z m-148 54 c34 -29 39 -44 28 -77 -6 -17 -14 -31 -17
-31 -4 0 -22 27 -40 60 l-33 60 24 0 c13 0 30 -6 38 -12z m-208 -102 c18 -7
45 -29 60 -47 15 -19 32 -40 38 -47 5 -7 35 -49 65 -94 56 -84 80 -145 69
-178 -4 -11 -3 -30 1 -42 6 -20 9 -17 18 21 6 25 17 47 25 49 11 4 13 -5 7
-44 -7 -51 -17 -64 -53 -64 -15 0 -35 17 -63 54 -23 30 -58 67 -78 82 -20 16
-54 47 -74 69 -20 23 -55 50 -77 60 -23 10 -41 23 -41 29 0 21 54 166 62 166
5 0 23 -6 41 -14z m1397 -43 c-31 -14 -248 -38 -257 -29 -7 7 122 26 173 26
27 0 56 5 64 10 8 5 24 9 35 9 14 0 10 -5 -15 -16z m50 -20 c0 -18 -41 -73
-67 -90 -22 -14 -48 -18 -133 -18 -101 0 -110 2 -170 33 -34 17 -70 32 -79 32
-13 -1 -12 -3 4 -12 11 -6 38 -23 60 -37 22 -14 53 -31 70 -37 26 -9 20 -11
-42 -10 -71 1 -73 0 -112 -38 -22 -22 -41 -48 -43 -59 -3 -19 -4 -19 -17 -4
-12 15 -9 21 23 53 20 20 36 38 36 40 0 2 -12 2 -27 -1 -27 -6 -27 -6 -9 9 11
9 34 16 50 16 17 0 38 5 46 10 12 8 9 10 -11 10 -67 0 -89 -11 -117 -61 -15
-27 -30 -49 -34 -49 -14 0 -8 25 12 50 20 26 26 45 12 36 -5 -3 -6 9 -4 26 3
21 1 29 -7 24 -18 -11 -13 9 7 27 28 26 98 36 186 28 140 -12 287 -7 321 12
33 18 45 21 45 10z m150 -152 c-22 -32 -30 -38 -30 -22 0 12 41 63 47 57 3 -3
-5 -19 -17 -35z m-1840 -161 c0 -6 -11 -28 -25 -49 -15 -21 -41 -74 -60 -117
-25 -57 -35 -71 -35 -52 0 15 4 37 9 50 5 13 12 34 15 48 14 64 96 166 96 120z
m84 -21 c20 -12 36 -25 36 -30 0 -5 -11 -31 -24 -57 -13 -26 -41 -96 -61 -157
-21 -60 -40 -117 -43 -125 -3 -10 -2 -12 5 -5 10 10 37 80 68 175 16 51 48
119 68 147 11 15 77 -22 77 -43 0 -42 -66 -232 -91 -262 -8 -10 -15 -24 -16
-32 -2 -9 -11 -32 -22 -52 l-19 -37 -53 58 c-72 78 -119 140 -119 156 0 45
124 284 147 285 6 0 28 -9 47 -21z m1362 -50 c-11 -57 -129 -260 -188 -325
-31 -35 -62 -72 -68 -84 -14 -26 -70 -243 -115 -445 -8 -33 -27 -99 -44 -146
-17 -48 -47 -156 -66 -240 -19 -85 -46 -174 -59 -199 -14 -25 -39 -73 -56
-108 l-32 -62 -53 0 -53 0 39 102 c22 57 42 104 43 105 2 2 24 -8 49 -23 26
-14 47 -22 47 -17 0 5 -19 20 -42 33 -24 13 -44 24 -46 25 -5 4 117 473 127
492 5 10 17 39 26 65 l17 46 45 -19 c51 -22 53 -22 53 -10 0 4 -21 14 -46 21
-50 14 -49 9 -15 100 12 30 35 109 52 174 35 138 35 139 101 229 l50 67 44
-24 c24 -13 46 -21 49 -16 6 10 -25 29 -62 39 -22 6 -21 9 40 115 57 101 65
110 102 122 64 19 68 18 61 -17z m-126 -6 c0 -15 -98 -175 -152 -246 -78 -104
-84 -118 -118 -255 -16 -64 -43 -151 -60 -192 -63 -150 -91 -239 -145 -452
-31 -120 -75 -271 -99 -335 l-44 -118 -82 -3 -81 -3 19 38 c34 67 89 206 110
278 11 39 36 122 56 185 19 63 55 185 80 270 24 85 69 209 99 275 29 66 64
150 76 187 12 37 60 134 107 215 46 81 84 151 84 155 0 5 34 8 75 8 41 0 75
-3 75 -7z m-654 -89 c-6 -49 -51 -162 -61 -152 -3 2 5 22 16 45 11 22 25 68
31 102 14 76 23 80 14 5z m-383 31 c26 -8 54 -12 62 -9 9 4 15 0 15 -7 -1 -28
-67 -176 -112 -249 -25 -42 -54 -99 -64 -127 l-18 -51 -43 29 c-24 17 -43 37
-43 46 0 9 18 49 39 88 22 40 56 122 77 183 20 62 37 112 38 112 1 0 22 -7 49
-15z m137 -506 c-31 -80 -103 -230 -108 -225 -2 3 12 38 32 80 20 41 36 79 36
85 0 14 53 122 57 117 2 -2 -6 -28 -17 -57z m-230 -545 c-10 -27 -19 -41 -20
-32 0 17 31 90 37 85 1 -2 -6 -25 -17 -53z m-35 -135 c-9 -40 -20 -80 -25 -88
-12 -21 -13 1 -1 31 5 13 14 49 21 81 6 32 14 56 17 53 3 -2 -3 -37 -12 -77z
m833 -276 c-9 -10 -23 -33 -32 -50 -11 -22 -24 -33 -38 -33 -19 0 -15 7 27 50
47 48 75 69 43 33z"/>
<path d="M638 2040 c6 -9 12 -25 12 -36 0 -10 5 -26 10 -34 8 -12 10 -9 10 12
0 15 -10 37 -22 50 -13 13 -17 17 -10 8z"/>
<path d="M690 1949 c0 -27 18 -48 60 -69 23 -12 23 -10 -6 21 -17 19 -36 43
-42 54 -11 19 -11 18 -12 -6z"/>
<path d="M1535 1310 c-3 -5 8 -16 24 -25 39 -20 62 -19 36 1 -35 27 -53 35
-60 24z"/>
<path d="M1323 731 c-10 -27 -8 -32 21 -60 18 -17 40 -31 51 -31 18 0 17 1 -2
23 -11 12 -29 39 -40 60 l-19 37 -11 -29z"/>
<path d="M1260 525 c0 -5 77 -55 85 -55 16 0 0 18 -35 38 -39 22 -50 26 -50
17z"/>
<path d="M1240 389 c0 -9 59 -49 73 -49 18 0 3 17 -33 37 -22 12 -40 17 -40
12z"/>
<path d="M1350 3650 c-21 -11 -43 -33 -54 -57 -18 -37 -18 -38 1 -20 11 9 22
16 24 15 2 -2 23 16 47 40 46 45 39 53 -18 22z"/>
<path d="M1550 3630 c-14 -11 -39 -22 -57 -26 -18 -3 -53 -26 -80 -51 -26 -24
-60 -47 -76 -50 -33 -7 -46 -22 -20 -24 30 -2 47 2 63 16 8 7 37 17 65 21 35
5 55 14 68 31 25 31 35 21 13 -12 -23 -35 -15 -56 10 -25 48 61 99 101 122 95
12 -3 22 -1 22 5 0 24 -36 13 -198 -61 -70 -32 -72 -33 -72 -19 0 13 79 57
120 65 54 12 102 37 88 47 -21 13 -41 9 -68 -12z"/>
<path d="M1088 3533 c-31 -36 -51 -92 -28 -78 6 3 10 14 10 23 0 9 12 29 27
44 15 15 22 28 16 28 -5 0 -17 -8 -25 -17z"/>
<path d="M1211 3515 c-19 -21 -26 -35 -18 -35 17 0 50 35 53 55 3 21 1 20 -35
-20z"/>
<path d="M1578 3533 c-9 -10 -25 -37 -37 -61 -25 -49 -42 -59 -75 -44 -13 6
-29 7 -37 2 -10 -7 -4 -13 23 -25 63 -26 70 -22 112 61 38 75 43 100 14 67z"/>
<path d="M1125 3449 c-22 -5 -48 -20 -58 -32 -10 -12 -15 -15 -11 -7 6 12 5
13 -8 3 -8 -7 -18 -10 -21 -6 -4 3 -7 -1 -7 -11 0 -22 40 -15 76 13 15 12 36
21 48 21 11 1 32 7 46 15 l25 14 -25 0 c-14 -1 -43 -5 -65 -10z"/>
<path d="M1061 3360 c-67 -57 -74 -70 -62 -120 l9 -35 1 37 c1 32 9 43 66 93
61 54 77 75 56 75 -5 0 -36 -23 -70 -50z"/>
<path d="M1054 3296 c-25 -25 -34 -43 -34 -67 0 -19 -11 -53 -24 -76 l-24 -42
40 -41 c41 -40 62 -54 37 -23 -12 14 -12 16 1 11 11 -3 15 -22 16 -74 0 -44 7
-81 17 -101 12 -21 18 -62 20 -122 1 -53 6 -86 11 -81 5 5 8 52 7 104 -1 93
-14 146 -34 146 -6 0 -7 24 -3 63 l6 64 -37 24 c-40 25 -40 28 -26 104 l8 40
20 -30 c11 -17 31 -51 45 -77 13 -27 27 -43 31 -36 4 6 12 9 18 7 7 -3 -2 -18
-19 -38 -44 -48 -31 -62 15 -15 21 21 36 31 32 21 -8 -22 2 -22 19 1 23 30 16
-7 -7 -40 -13 -18 -24 -26 -28 -19 -5 7 -18 0 -36 -19 -16 -16 -23 -30 -17
-30 7 0 17 9 24 20 20 31 30 23 13 -10 -23 -44 -13 -37 34 23 56 73 54 95 -14
166 -30 32 -55 63 -55 69 0 7 -4 12 -9 12 -20 0 3 -40 50 -86 27 -26 49 -52
49 -56 0 -13 -57 13 -77 35 -11 12 -31 42 -44 67 -13 25 -28 48 -33 52 -5 3 5
25 23 47 40 50 31 53 -15 7z"/>
<path d="M1480 3303 c-8 -13 -13 -14 -16 -5 -3 6 -10 12 -15 12 -5 0 -2 -12 8
-26 9 -15 19 -22 21 -15 2 6 8 11 14 11 6 0 8 -7 5 -15 -7 -16 2 -24 33 -30
17 -3 19 -1 10 15 -5 10 -10 29 -10 42 0 18 -2 20 -10 8 -8 -13 -10 -12 -10 3
0 9 -4 17 -10 17 -5 0 -14 -8 -20 -17z"/>
<path d="M1078 3271 c-8 -16 -12 -34 -8 -41 5 -8 12 0 20 24 15 46 10 54 -12
17z"/>
<path d="M1327 3286 c-4 -10 -13 -13 -23 -9 -12 4 -15 3 -10 -5 8 -13 56 -17
56 -4 0 4 -4 13 -9 20 -7 11 -9 11 -14 -2z"/>
<path d="M1230 3200 c0 -12 80 -90 93 -90 12 0 9 4 -43 53 -27 26 -50 43 -50
37z"/>
<path d="M1180 3191 c0 -17 41 -91 50 -91 4 0 -3 21 -16 47 -27 53 -34 62 -34
44z"/>
<path d="M1006 3030 c3 -19 10 -46 14 -60 22 -62 53 -170 65 -220 11 -45 13
-49 14 -23 1 18 -5 52 -13 75 -8 24 -20 70 -26 103 -14 70 -28 112 -47 140
-12 18 -13 17 -7 -15z"/>
<path d="M1524 2805 c-12 -8 -24 -12 -26 -10 -3 3 -21 -2 -41 -10 -20 -8 -53
-15 -72 -15 -22 0 -34 -4 -30 -10 12 -19 90 -12 110 10 20 23 44 28 26 6 -8
-10 0 -8 26 5 20 10 44 19 53 19 8 0 22 5 30 10 11 7 6 10 -20 10 -20 0 -45
-7 -56 -15z"/>
<path d="M1570 2785 c-19 -7 -44 -17 -55 -21 -11 -4 -26 -8 -32 -9 -7 0 -12
-4 -10 -10 1 -5 -20 -14 -48 -21 -67 -16 -24 -17 98 -4 76 9 105 8 158 -5 77
-18 82 -18 73 -4 -5 8 6 10 37 5 24 -3 51 -2 59 3 18 13 11 20 -23 23 -15 1
-27 4 -27 5 0 8 82 43 90 38 6 -3 10 -1 10 4 0 15 -20 13 -55 -5 -22 -11 -55
-15 -130 -13 -55 2 -111 -1 -125 -5 -14 -5 -22 -5 -18 -1 3 3 28 13 55 20 46
13 47 13 13 14 -19 0 -51 -6 -70 -14z"/>
<path d="M860 2730 c-9 -28 -11 -49 -4 -65 10 -25 144 -149 152 -140 3 3 -3
14 -13 25 -10 11 -15 20 -12 20 4 0 2 11 -3 25 -6 14 -6 25 0 25 4 0 11 -6 13
-12 2 -7 3 0 1 16 -2 16 -4 44 -4 62 0 43 -42 84 -86 84 -27 0 -32 -5 -44 -40z
m105 -75 c0 -33 4 -66 8 -72 5 -7 4 -13 -1 -13 -14 0 -72 86 -72 107 0 26 20
44 45 41 17 -3 20 -11 20 -63z"/>
<path d="M2036 2708 c-16 -22 -43 -46 -61 -54 -18 -7 -35 -20 -38 -29 -5 -12
-23 -15 -80 -15 -61 0 -83 5 -123 27 -66 35 -184 43 -270 18 -32 -10 -75 -21
-94 -25 l-35 -7 30 -12 c36 -15 70 -17 111 -8 30 8 30 7 26 -27 -4 -32 -1 -37
31 -52 34 -16 37 -16 63 0 23 16 26 23 21 57 -3 23 -1 39 5 39 21 0 68 -35 68
-51 0 -22 -46 -59 -74 -60 -11 0 -15 -3 -9 -6 22 -8 81 17 86 37 7 26 23 26
23 1 0 -15 -15 -25 -54 -40 -71 -28 -109 -26 -157 5 -22 14 -32 23 -22 20 17
-5 17 -5 0 19 -21 28 -38 33 -25 8 5 -10 8 -23 6 -28 -2 -6 10 -25 26 -44 27
-29 35 -33 74 -29 24 1 42 -1 39 -6 -7 -10 32 1 67 20 14 7 41 29 60 49 85 88
75 83 151 83 60 1 76 5 105 27 44 33 87 90 82 109 -2 10 -13 1 -32 -26z m-323
-89 c32 -21 47 -38 47 -52 0 -20 -3 -18 -27 12 -49 62 -122 75 -254 45 -39 -9
-73 -14 -76 -11 -12 13 99 36 178 36 80 1 89 -1 132 -30z m-178 -36 c0 -23 4
-28 25 -28 17 0 26 7 31 25 5 21 7 22 13 8 10 -23 -11 -58 -35 -58 -49 0 -76
39 -47 68 7 7 12 12 13 12 0 0 1 -12 0 -27z"/>
<path d="M1819 2499 l-24 -20 24 12 c14 6 36 15 50 20 l26 7 -26 1 c-15 1 -37
-8 -50 -20z"/>
<path d="M1911 2503 c0 -10 4 -27 9 -38 7 -16 9 -13 9 18 1 20 -3 37 -9 37 -5
0 -10 -8 -9 -17z"/>
<path d="M1845 2451 c-77 -43 -145 -96 -174 -136 -47 -65 -38 -65 27 1 31 32
75 70 95 84 40 26 96 70 87 68 -3 0 -18 -8 -35 -17z"/>
<path d="M1900 2453 c0 -6 10 -24 23 -40 35 -43 57 -81 57 -97 0 -8 5 -18 10
-21 16 -10 1 44 -24 85 -11 19 -20 39 -18 43 1 5 -2 6 -7 3 -5 -4 -17 4 -25
16 -9 12 -16 17 -16 11z"/>
<path d="M2041 2427 c-2 -20 33 -77 55 -92 13 -8 31 -30 41 -48 13 -25 18 -28
21 -14 2 11 -15 38 -45 71 -26 28 -53 61 -60 71 -6 11 -12 16 -12 12z"/>
<path d="M1150 2392 c0 -20 43 -158 56 -181 8 -14 13 -18 10 -9 -3 10 -15 58
-28 108 -12 49 -26 90 -30 90 -4 0 -8 -3 -8 -8z"/>
<path d="M1770 2345 c0 -3 15 -11 34 -19 19 -8 53 -33 75 -55 23 -23 46 -41
51 -41 15 0 -71 89 -102 106 -26 14 -58 19 -58 9z"/>
<path d="M4 2030 c0 -157 2 -221 3 -142 2 78 2 206 0 285 -1 78 -3 14 -3 -143z"/>
<path d="M862 2275 c-40 -18 -95 -55 -89 -62 3 -2 28 10 56 27 29 16 56 30 61
30 5 0 12 5 15 10 8 13 -3 12 -43 -5z"/>
<path d="M1702 2260 c-9 -23 -8 -33 4 -45 30 -30 60 -39 119 -36 49 2 69 -3
103 -22 23 -13 40 -26 37 -29 -6 -6 106 -58 124 -58 12 0 -21 74 -39 85 -5 3
-10 12 -10 18 0 18 55 48 73 41 21 -8 30 11 13 25 -17 14 -59 -4 -90 -38 -24
-26 -61 -27 -117 -1 -50 22 -96 25 -133 9 -20 -10 -30 -9 -51 5 -22 14 -25 22
-20 47 9 38 0 37 -13 -1z"/>
<path d="M2385 2150 c-11 -5 -40 -9 -65 -9 -44 -1 -70 -14 -70 -35 0 -6 5 -5
12 2 7 7 32 12 58 13 44 0 147 37 105 38 -11 0 -29 -4 -40 -9z"/>
<path d="M1520 2072 c-24 -11 -36 -25 -38 -42 -2 -14 -10 -45 -18 -69 -8 -24
-13 -46 -10 -48 8 -9 36 55 40 93 5 37 27 64 52 64 7 0 16 5 19 10 9 15 -5 12
-45 -8z"/>
<path d="M2310 2076 c-14 -8 -44 -20 -67 -27 -54 -16 -55 -28 -2 -24 28 2 52
12 77 33 39 32 35 41 -8 18z"/>
<path d="M2528 2009 c-30 -25 -41 -28 -57 -20 -36 20 -36 12 -1 -19 l35 -30
-44 15 c-24 8 -49 15 -56 15 -15 0 -86 -106 -114 -170 -11 -25 -25 -83 -32
-130 -14 -100 -20 -114 -113 -245 -38 -55 -90 -129 -114 -164 -23 -35 -61 -85
-84 -110 -80 -91 -84 -100 -143 -331 l-6 -25 14 24 c14 24 15 24 21 -25 3 -27
3 -101 -1 -164 -14 -243 -9 -335 26 -448 18 -56 33 -121 34 -142 1 -22 5 -40
9 -40 18 0 6 78 -28 186 -35 113 -36 114 -29 241 7 137 8 333 3 436 -5 94 22
169 88 247 101 120 298 407 317 463 8 23 20 78 27 122 8 57 22 99 47 145 60
110 62 112 108 104 22 -3 47 -7 55 -9 8 -1 32 -5 52 -10 31 -6 45 -3 83 19 25
15 45 31 45 35 0 11 -76 61 -92 61 -7 -1 -30 -14 -50 -31z m87 -9 c14 -16 15
-22 5 -35 -17 -21 -74 -29 -101 -14 l-23 12 34 28 c40 34 60 36 85 9z"/>
<path d="M2448 1888 c-55 -73 -132 -212 -209 -378 -84 -181 -184 -410 -192
-442 -5 -16 -8 -17 -41 -3 -20 9 -36 11 -36 6 0 -9 38 -24 54 -22 18 3 -6 -70
-57 -170 -51 -101 -78 -185 -83 -261 -1 -21 2 -35 7 -32 5 3 9 17 9 32 0 50
39 169 90 272 27 57 50 108 50 114 0 32 146 368 266 611 40 82 111 202 158
269 27 39 13 42 -16 4z"/>
<path d="M2581 1823 c-55 -77 -174 -312 -210 -415 -28 -79 -126 -310 -223
-523 -25 -55 -49 -111 -53 -125 -16 -55 -70 -142 -116 -185 -38 -35 -56 -45
-83 -45 -38 0 -47 -13 -45 -68 l2 -37 6 40 c18 121 110 -27 139 -225 l16 -110
-36 -37 c-32 -35 -58 -73 -58 -87 0 -17 20 0 55 46 49 63 69 107 56 122 -10
12 -31 118 -30 150 1 18 6 -1 34 -122 3 -13 10 -20 16 -16 15 9 3 98 -21 150
-10 23 -21 57 -25 75 -4 19 -16 49 -26 68 -27 51 -36 14 -9 -39 12 -23 19 -44
16 -47 -5 -5 -56 90 -56 105 0 5 15 15 33 22 67 27 140 121 197 255 24 55 60
140 81 189 22 49 39 100 39 115 -1 35 -85 -140 -134 -279 -22 -63 -50 -119
-68 -140 l-30 -35 25 50 c13 28 30 68 37 90 7 22 44 106 81 187 38 82 69 150
69 153 0 3 21 51 46 107 26 57 62 145 81 197 39 110 135 302 194 389 36 54 43
59 56 47 19 -19 64 -19 110 0 36 15 36 15 61 -15 14 -16 29 -30 34 -30 10 0
-3 25 -30 56 l-18 22 -62 -21 -63 -20 -23 22 -24 22 -41 -58z"/>
<path d="M2951 1749 c-13 -5 -31 -7 -40 -5 -9 3 -27 -2 -41 -10 -14 -9 -17
-13 -7 -10 9 3 25 9 35 12 9 3 -1 -5 -22 -16 -108 -60 -224 -187 -290 -318
-26 -51 -26 -54 -11 -100 l15 -47 -6 51 c-6 54 4 84 49 147 l19 28 21 -33 c11
-18 28 -67 38 -108 10 -41 27 -108 38 -149 12 -41 21 -101 21 -133 0 -33 4
-57 9 -54 16 10 0 141 -29 241 -16 55 -31 116 -35 136 -3 21 -17 54 -30 74
-28 40 -28 37 28 113 l40 53 34 -60 c18 -32 37 -81 42 -108 5 -26 21 -80 36
-118 73 -194 75 -205 80 -340 3 -71 8 -137 11 -147 3 -11 0 -20 -8 -22 -79
-23 -181 -41 -263 -45 l-100 -6 -3 -55 c-4 -61 13 -177 29 -200 8 -11 9 -7 4
15 -16 82 -27 184 -22 206 6 25 8 25 125 20 l32 -1 0 -117 c0 -112 2 -121 30
-175 31 -59 72 -202 84 -293 4 -27 12 -78 18 -112 l10 -63 54 0 54 0 -2 178
c0 97 -4 157 -7 132 l-6 -45 -22 35 c-45 73 -42 130 8 130 33 0 40 17 8 22
-12 2 -31 19 -42 40 -21 35 -21 39 -6 80 11 30 22 44 37 46 20 3 21 -2 25 -75
1 -43 4 207 5 555 1 352 -2 632 -7 632 -4 0 -6 -73 -3 -162 2 -90 1 -160 -2
-156 -4 3 -21 52 -37 109 -28 97 -59 159 -80 159 -14 0 -11 -7 10 -27 11 -10
40 -81 66 -157 l46 -139 -3 -135 c-2 -79 -7 -137 -13 -138 -10 -3 -96 236
-122 341 -8 33 -30 91 -49 128 -19 37 -32 72 -29 76 19 32 205 128 219 113 4
-3 6 0 6 6 0 14 -16 14 -49 1z m34 -908 c-15 -14 -25 32 -25 120 0 63 4 99 13
108 10 10 13 -11 15 -105 1 -64 0 -119 -3 -123z m5 -71 c0 -29 -5 -50 -11 -50
-5 0 -7 5 -4 10 3 6 -1 10 -9 10 -23 0 -36 -33 -36 -94 0 -30 -4 -58 -10 -61
-16 -10 -12 -71 8 -104 15 -27 15 -33 3 -40 -9 -6 -22 -6 -32 0 -23 12 -69 12
-69 -1 0 -5 18 -10 40 -10 35 0 40 -3 40 -24 0 -35 20 -86 52 -133 27 -40 28
-47 28 -152 l0 -111 -45 0 c-42 0 -45 2 -45 28 -1 92 -63 349 -106 434 -21 42
-24 61 -24 166 0 89 4 122 14 131 12 10 56 17 124 20 13 1 21 5 17 10 -5 9 14
15 53 20 8 1 12 -15 12 -49z m0 -99 c0 -39 -36 -50 -45 -14 -7 30 0 43 26 43
14 0 19 -7 19 -29z"/>
<path d="M2815 712 c15 -16 105 -27 105 -13 0 6 -11 11 -24 11 -13 0 -39 3
-57 6 -24 5 -31 3 -24 -4z"/>
<path d="M2790 649 c0 -4 23 -12 50 -18 63 -14 77 -14 65 -2 -13 12 -115 30
-115 20z"/>
<path d="M2810 570 c0 -5 18 -10 40 -10 22 0 40 5 40 10 0 6 -18 10 -40 10
-22 0 -40 -4 -40 -10z"/>
<path d="M1140 1739 c0 -20 146 -44 171 -28 10 6 3 9 -21 9 -19 0 -61 6 -92
14 -32 7 -58 10 -58 5z"/>
<path d="M1690 1731 c0 -15 6 -21 21 -21 25 0 22 33 -4 38 -12 2 -17 -3 -17
-17z"/>
<path d="M700 1713 c30 -25 32 -30 27 -73 -7 -58 8 -87 17 -33 3 21 9 47 12
59 4 16 -4 27 -33 47 -50 35 -64 35 -23 0z"/>
<path d="M2093 1630 c-10 -22 -21 -40 -26 -40 -15 0 -45 -84 -61 -170 -9 -47
-19 -94 -22 -105 -5 -14 -3 -17 5 -10 6 6 20 58 32 115 14 70 28 112 42 128
11 12 17 22 13 22 -4 0 5 12 19 27 14 15 25 38 25 50 0 33 -8 28 -27 -17z"/>
<path d="M917 1561 c-8 -37 4 -66 34 -82 26 -13 49 -5 49 18 -1 18 -29 75 -30
59 0 -5 -7 -3 -15 4 -8 7 -15 9 -16 4 0 -5 -4 0 -8 11 -7 16 -9 14 -14 -14z"/>
<path d="M190 1328 c-24 -40 -25 -61 -4 -82 23 -24 31 -20 42 22 8 29 10 32
11 12 1 -37 -24 -70 -117 -152 -46 -40 -92 -87 -103 -104 -26 -42 -26 -117 1
-151 11 -14 20 -33 19 -42 0 -11 -4 -9 -11 7 -6 12 -15 22 -20 22 -14 0 -9
-16 13 -44 12 -15 19 -37 17 -53 -4 -31 -24 -42 -31 -16 -3 11 -5 7 -6 -11 -1
-26 1 -28 27 -21 37 9 46 19 34 41 -5 11 -7 45 -4 77 4 55 7 60 58 105 53 46
64 62 44 62 -11 0 -75 -68 -102 -108 l-16 -25 -16 31 c-21 40 -20 80 2 114 10
15 58 64 107 108 122 110 125 114 125 169 0 25 -4 51 -8 56 -16 22 -42 15 -62
-17z m34 -5 c-3 -16 -8 -40 -11 -55 -6 -33 -23 -27 -23 8 0 22 26 74 36 74 3
0 2 -12 -2 -27z"/>
<path d="M2641 1295 c-61 -69 -61 -72 -45 -148 8 -38 12 -73 8 -78 -3 -5 -32
-9 -65 -9 -69 0 -69 3 1 83 23 26 40 50 37 53 -8 8 -77 -70 -111 -125 -15 -25
-62 -81 -105 -124 -42 -43 -68 -75 -59 -72 15 6 16 3 9 -22 -49 -161 -61 -212
-61 -252 0 -26 -5 -73 -11 -104 -10 -49 -15 -57 -42 -66 -49 -18 -52 -15 -52
49 -1 57 6 73 20 50 3 -5 9 -10 13 -10 9 0 34 81 27 88 -3 3 -5 -1 -5 -9 0 -9
-6 -23 -13 -33 -13 -18 -15 -18 -39 -2 l-26 17 24 42 c13 23 24 49 24 57 0 8
-12 -9 -27 -38 -21 -41 -32 -52 -50 -52 -66 0 -72 -232 -7 -297 11 -12 15 -30
12 -64 -3 -52 3 -55 21 -10 11 26 9 37 -19 100 -32 75 -39 130 -26 209 7 37
11 43 29 40 25 -3 37 -52 18 -71 -18 -18 -13 -61 15 -121 29 -63 28 -96 -6
-174 -13 -28 -25 -42 -38 -42 -29 0 -51 -31 -62 -90 -12 -64 -12 -70 -2 -70 5
0 14 24 21 53 14 62 32 92 61 100 17 4 20 0 20 -26 0 -24 3 -28 10 -17 5 8 9
33 8 55 -1 28 7 53 25 82 37 58 47 61 47 14 0 -27 -7 -48 -25 -69 -18 -22 -65
-152 -65 -182 0 -3 14 -5 31 -6 21 -1 29 3 25 12 -3 8 -8 36 -12 64 -6 47 -5
51 26 80 25 23 35 44 46 97 8 38 14 88 15 113 0 25 4 54 8 65 8 20 22 -164 25
-333 1 -64 -2 -85 -14 -92 -13 -8 -13 -10 2 -10 31 0 43 68 28 157 -7 43 -16
182 -19 308 -6 226 -6 232 20 328 21 78 34 106 60 133 18 19 37 34 41 34 4 0
8 -43 8 -95 l0 -95 62 0 c73 0 73 10 0 11 l-52 2 1 96 c1 73 6 105 20 134 l19
37 68 0 c68 0 212 29 212 43 0 10 -18 9 -76 -7 l-51 -13 -13 69 c-13 74 -6 98
31 98 10 0 20 4 23 9 4 5 -4 7 -16 3 -20 -5 -20 -3 7 32 37 48 27 57 -14 11z
m-394 -881 c-14 -46 -36 -97 -53 -117 -33 -42 -42 -41 -20 2 9 16 16 45 16 63
0 24 6 36 22 43 14 7 26 28 36 60 8 28 16 45 18 40 2 -6 -6 -47 -19 -91z"/>
<path d="M1062 1248 c-23 -29 -112 -265 -112 -297 0 -9 22 40 48 109 27 69 56
140 66 158 18 35 17 53 -2 30z"/>
<path d="M293 1198 c-34 -37 -106 -149 -100 -154 3 -3 13 7 23 23 10 15 38 52
61 81 37 47 51 72 40 72 -2 0 -13 -10 -24 -22z"/>
<path d="M359 1051 c-43 -46 -79 -89 -79 -95 0 -5 38 30 84 79 47 49 83 92 80
94 -3 3 -41 -32 -85 -78z"/>
<path d="M138 1048 c33 -35 132 -95 132 -81 0 4 -18 18 -40 31 -22 12 -55 36
-74 52 -45 40 -58 38 -18 -2z"/>
<path d="M2870 1020 c-49 -32 -141 -65 -209 -74 l-44 -7 7 41 c4 24 2 40 -4
40 -5 0 -10 -13 -10 -29 0 -16 -4 -41 -10 -55 -9 -25 -13 -26 -82 -26 -52 0
-69 -3 -58 -10 9 -6 41 -8 78 -4 l62 6 0 -36 0 -36 -77 0 c-50 0 -74 -3 -67
-10 11 -11 177 -16 194 -5 6 4 36 10 66 14 44 6 54 5 50 -6 -3 -7 -2 -13 3
-13 5 0 11 8 14 19 3 13 18 20 54 25 28 3 58 4 67 0 11 -4 16 -1 16 11 0 14
-7 15 -47 10 -27 -4 -56 -9 -65 -12 -14 -3 -18 2 -18 24 0 15 -3 38 -6 49 -5
18 2 26 48 46 52 25 112 68 93 67 -5 0 -30 -13 -55 -29z m-100 -153 c-6 -7
-108 -27 -142 -27 -13 0 -18 8 -18 28 0 26 5 30 78 53 l77 25 5 -35 c3 -20 3
-39 0 -44z"/>
<path d="M510 1034 c0 -5 -56 -68 -124 -141 -68 -72 -126 -143 -130 -157 l-6
-25 -63 31 c-34 16 -75 36 -90 44 -22 11 -28 11 -25 2 3 -7 15 -18 29 -25 50
-25 119 -53 129 -53 21 0 9 -18 -40 -60 -28 -24 -59 -63 -69 -86 -21 -46 -57
-75 -96 -78 -14 0 -25 -7 -25 -13 0 -16 3 -16 47 2 50 21 72 43 93 90 10 24
33 51 54 65 24 16 48 46 67 82 17 33 71 102 130 165 108 114 136 150 125 160
-3 3 -6 2 -6 -3z"/>
<path d="M551 979 c-12 -23 -19 -44 -16 -48 7 -7 29 19 51 62 13 23 13 27 0
27 -8 0 -24 -19 -35 -41z"/>
<path d="M846 969 c-10 -27 -16 -52 -13 -55 3 -3 13 18 22 46 22 67 14 75 -9
9z"/>
<path d="M180 970 c0 -10 71 -50 90 -50 5 0 10 5 10 11 0 6 -6 9 -14 6 -8 -3
-29 5 -47 19 -37 27 -39 28 -39 14z"/>
<path d="M1779 939 c-6 -13 -8 -39 -5 -64 6 -34 -1 -65 -29 -151 -27 -83 -38
-136 -45 -224 -5 -63 -12 -126 -15 -140 -4 -17 -1 -14 11 10 12 23 18 63 19
120 2 66 10 110 38 196 19 60 38 137 42 170 3 32 8 69 11 82 6 28 -12 29 -27
1z"/>
<path d="M893 908 c-29 -11 -53 -27 -53 -34 0 -8 5 -14 10 -14 6 0 10 4 10 10
0 12 106 43 120 35 5 -3 10 -1 10 4 0 6 -4 11 -9 11 -5 0 -15 2 -23 4 -7 2
-37 -5 -65 -16z"/>
<path d="M195 864 c-19 -26 -35 -54 -35 -63 0 -9 11 1 24 22 13 21 34 49 46
62 13 14 18 25 12 25 -6 0 -27 -21 -47 -46z"/>
<path d="M790 873 c-46 -32 -49 -37 -20 -28 25 7 68 41 59 48 -2 2 -20 -7 -39
-20z"/>
<path d="M2350 854 c0 -3 11 -19 25 -36 22 -26 25 -39 25 -114 0 -46 3 -84 8
-84 4 0 5 42 2 93 -4 71 -9 98 -22 111 -10 10 -18 22 -18 27 0 5 -4 9 -10 9
-5 0 -10 -3 -10 -6z"/>
<path d="M837 821 c-3 -12 -2 -21 3 -21 4 0 15 -11 24 -25 31 -47 -25 -105
-66 -68 -10 9 -18 12 -18 7 1 -40 71 -45 95 -7 20 31 18 51 -9 96 -21 34 -24
36 -29 18z"/>
<path d="M811 764 c-20 -25 -20 -28 -5 -46 22 -23 44 -7 44 33 0 39 -15 44
-39 13z"/>
<path d="M124 705 c-12 -8 -25 -11 -29 -7 -4 4 -4 -9 0 -30 6 -31 4 -38 -17
-51 -12 -9 -35 -19 -51 -22 -15 -4 -27 -11 -27 -16 0 -9 32 1 80 26 22 11 30
23 30 42 0 15 10 37 22 50 25 26 22 29 -8 8z"/>
<path d="M1760 645 c-21 -62 -23 -89 -24 -250 0 -133 5 -205 18 -275 10 -52
18 -101 19 -107 0 -9 17 -12 56 -11 55 2 56 2 10 5 -46 4 -47 5 -58 46 -6 23
-16 100 -23 170 -10 103 -10 130 1 136 9 6 11 34 5 118 -5 90 -4 119 10 161
10 29 16 58 13 65 -2 6 -14 -19 -27 -58z"/>
<path d="M2290 693 c0 -6 5 -15 10 -18 6 -3 10 -14 10 -24 0 -22 38 -50 125
-90 l70 -32 1 -137 c2 -94 9 -170 23 -242 30 -149 33 -140 -44 -140 -64 0 -65
0 -66 28 -6 217 -36 542 -49 542 -7 0 -4 -36 14 -180 8 -58 14 -160 14 -227 0
-66 3 -130 7 -141 5 -19 1 -21 -42 -25 -26 -2 47 -3 162 -3 116 0 173 2 128 3
-46 2 -83 6 -83 9 0 3 -11 63 -24 132 -23 122 -44 372 -31 372 11 0 139 -86
151 -101 6 -8 18 -86 27 -174 9 -91 23 -179 32 -203 l17 -42 72 2 71 2 -62 3
c-34 2 -66 10 -72 17 -20 24 -40 129 -47 244 l-7 116 66 -52 c40 -31 67 -47
67 -38 0 8 -21 30 -47 49 -27 20 -61 50 -78 67 -38 40 -132 102 -259 169 -55
29 -105 60 -112 69 -32 45 -43 56 -44 45z"/>
<path d="M2637 670 c4 -5 31 -12 58 -15 33 -5 47 -4 40 3 -5 5 -32 12 -58 15
-27 2 -45 1 -40 -3z"/>
<path d="M610 535 c-12 -31 -20 -58 -18 -61 3 -2 15 21 26 53 27 74 21 80 -8
8z"/>
<path d="M302 444 c-36 -18 -48 -32 -36 -44 7 -7 20 0 39 20 32 34 31 42 -3
24z"/>
<path d="M3 395 c0 -33 2 -45 4 -27 2 18 2 45 0 60 -2 15 -4 0 -4 -33z"/>
<path d="M220 424 c0 -10 33 -54 41 -54 13 0 -11 48 -27 54 -8 3 -14 3 -14 0z"/>
<path d="M210 392 c0 -6 -25 -27 -55 -48 -31 -20 -62 -46 -70 -58 -9 -11 -19
-20 -23 -18 -8 2 -9 -3 -11 -50 l-1 -33 -21 40 c-12 22 -23 42 -26 45 -10 10
9 -106 20 -118 6 -7 12 -25 13 -39 4 -32 11 -40 26 -25 9 9 9 18 0 37 -17 37
-15 55 14 112 19 39 40 61 80 88 54 36 73 59 60 72 -3 4 -6 1 -6 -5z"/>
<path d="M412 353 c-31 -22 -48 -40 -41 -44 16 -10 96 38 102 61 7 27 0 25
-61 -17z"/>
<path d="M548 323 c-9 -32 -15 -59 -13 -61 5 -5 37 97 33 108 -2 5 -11 -16
-20 -47z"/>
<path d="M920 352 c0 -9 92 -43 99 -37 8 8 -6 16 -53 30 -25 8 -46 11 -46 7z"/>
<path d="M2258 215 c-4 -22 -8 -58 -8 -80 0 -22 -9 -58 -20 -80 -22 -45 -24
-55 -12 -55 5 0 19 21 31 48 18 39 21 61 19 127 -3 69 -4 74 -10 40z"/>
<path d="M2221 155 c1 -5 -1 -18 -5 -27 -4 -9 -3 -24 2 -34 7 -13 10 -10 16
17 4 19 2 37 -5 43 -6 7 -10 7 -8 1z"/>
<path d="M604 85 c-9 -55 -8 -65 4 -60 7 3 14 5 15 5 4 0 -1 112 -5 116 -3 2
-9 -25 -14 -61z"/>
<path d="M551 118 c-4 -12 -4 -40 0 -62 5 -23 8 -44 9 -48 0 -5 7 -8 16 -8 13
0 14 3 5 14 -7 8 -13 39 -14 70 -1 31 -3 56 -5 56 -1 0 -6 -10 -11 -22z"/>
<path d="M2098 100 c-24 -28 -50 -81 -44 -88 4 -3 14 5 23 18 9 13 25 32 35
42 12 12 16 24 10 33 -6 13 -10 12 -24 -5z"/>
</g>
</svg>
